# xmcd
#
# Track frame offsets:
#	150
#	19114
#	30141
#	45189
#	55504
#	70605
#	83899
#	102070
#	115485
#	135905
#	151416
#	164147
#	182009
#	193635
#
# Disc length: 2754 seconds
#
# Revision: 1
# Processed by: cddbd v1.5.2PL0 Copyright (c) Steve Scherf et al.
# Submitted via: audiograbber 1.83.01
#
DISCID=a20ac00e
DTITLE=Eugene Doonan - He Wrote The Songs
DYEAR=1900
DGENRE=
TTITLE0=He Wrote The Songs
TTITLE1=Still Waiting Here For You
TTITLE2=Drink Up It's Closing Time
TTITLE3=Our Beautiful Girl
TTITLE4=Long Love Affair
TTITLE5=Peace Of Mind
TTITLE6=Did He Write This Song For Me?
TTITLE7=The Happy Artist
TTITLE8=Night Of A Thousand Songs
TTITLE9=Living A Lie
TTITLE10=Where Has Old Ireland Gone?
TTITLE11=County I Call Home
TTITLE12=Keep On Dreaming
TTITLE13=Dancehall Near Drumquin
EXTD=
EXTT0=
EXTT1=
EXTT2=
EXTT3=
EXTT4=
EXTT5=
EXTT6=
EXTT7=
EXTT8=
EXTT9=
EXTT10=
EXTT11=
EXTT12=
EXTT13=
PLAYORDER=
